<svg xmlns="http://www.w3.org/2000/svg" viewBox="0 0 800 1600" role="img" aria-label="Dream interpretation screenshot">
  <defs>
    <linearGradient id="bg2" x1="0" x2="1" y1="0" y2="1">
      <stop offset="0%" stop-color="#091326"/>
      <stop offset="100%" stop-color="#1b285a"/>
    </linearGradient>
  </defs>
  <rect width="800" height="1600" fill="url(#bg2)"/>
  <text x="58" y="130" fill="#eef3ff" font-family="Inter, Arial" font-size="50" font-weight="700">Interpretation</text>
  <text x="58" y="184" fill="#b7c5eb" font-family="Inter, Arial" font-size="28">Streaming on-device analysis</text>
  <rect x="48" y="246" rx="32" ry="32" width="704" height="512" fill="#131f47"/>
  <text x="88" y="322" fill="#e9efff" font-family="Inter, Arial" font-size="34" font-weight="700">TITLE</text>
  <text x="88" y="370" fill="#b9c8ef" font-family="Inter, Arial" font-size="30">The Moonlit Corridor</text>
  <text x="88" y="450" fill="#e9efff" font-family="Inter, Arial" font-size="34" font-weight="700">SYMBOLS</text>
  <rect x="88" y="482" rx="18" ry="18" width="160" height="56" fill="#2a3d7c"/>
  <rect x="262" y="482" rx="18" ry="18" width="180" height="56" fill="#344d96"/>
  <rect x="456" y="482" rx="18" ry="18" width="170" height="56" fill="#4361bc"/>
  <text x="110" y="520" fill="#dfe8ff" font-family="Inter, Arial" font-size="24">Moon</text>
  <text x="288" y="520" fill="#dfe8ff" font-family="Inter, Arial" font-size="24">Doorway</text>
  <text x="486" y="520" fill="#dfe8ff" font-family="Inter, Arial" font-size="24">Water</text>
  <text x="88" y="614" fill="#e9efff" font-family="Inter, Arial" font-size="34" font-weight="700">INTERPRETATION</text>
  <rect x="88" y="644" rx="14" ry="14" width="620" height="20" fill="#7184be"/>
  <rect x="88" y="678" rx="14" ry="14" width="590" height="20" fill="#667ab1"/>
  <rect x="88" y="712" rx="14" ry="14" width="548" height="20" fill="#5b6ea4"/>
  <rect x="48" y="802" rx="32" ry="32" width="704" height="470" fill="#0f1b3f"/>
  <text x="88" y="876" fill="#e9efff" font-family="Inter, Arial" font-size="34" font-weight="700">INTENTION</text>
  <rect x="88" y="918" rx="16" ry="16" width="620" height="24" fill="#6d80ba"/>
  <rect x="88" y="958" rx="16" ry="16" width="574" height="24" fill="#6274ad"/>
  <rect x="88" y="998" rx="16" ry="16" width="506" height="24" fill="#5868a0"/>
</svg>
